<svg width="250"  viewBox="0 0 520 111" fill="none" xmlns="http://www.w3.org/2000/svg">
<g clip-path="url(#clip0_203_2)">
<path d="M50.1781 83.1807H30.6702C29.6402 83.1807 28.8042 82.3382 28.8042 81.3003V79.905C28.8042 76.9089 26.9221 73.8652 24.9317 70.6422C22.2858 66.3624 19.2891 61.5135 19.2891 55.1026C19.2891 43.4492 28.6972 33.9682 40.2599 33.9682C51.8227 33.9682 61.2321 43.4492 61.2321 55.1026C61.2321 60.5645 58.6197 65.1088 56.0945 69.5052C54.0096 73.1356 52.0429 76.5617 52.0429 79.905V81.3003C52.0441 82.3382 51.2082 83.1807 50.1781 83.1807ZM32.5249 79.4199H48.3196C48.4764 75.2642 50.6098 71.5498 52.8614 67.6248C55.1428 63.6546 57.5002 59.5541 57.5002 55.1026C57.5002 45.5226 49.7651 37.729 40.2599 37.729C30.7548 37.729 23.021 45.5239 23.021 55.1026C23.021 60.4392 25.6022 64.6149 28.0989 68.654C30.1925 72.0424 32.357 75.5425 32.5249 79.4199Z" fill="white"/>
<path d="M48.7935 91.0595H32.0571C31.0271 91.0595 30.1912 90.2171 30.1912 89.1791C30.1912 88.1411 31.0271 87.2987 32.0571 87.2987H48.7935C49.8235 87.2987 50.6595 88.1411 50.6595 89.1791C50.6595 90.2171 49.8235 91.0595 48.7935 91.0595Z" fill="white"/>
<path d="M45.512 98.581H35.3375C34.3075 98.581 33.4716 97.7386 33.4716 96.7006C33.4716 95.6627 34.3075 94.8203 35.3375 94.8203H45.512C46.542 94.8203 47.3779 95.6627 47.3779 96.7006C47.3779 97.7386 46.542 98.581 45.512 98.581Z" fill="white"/>
<path d="M40.2599 27.3843C39.2299 27.3843 38.3939 26.5419 38.3939 25.5039V16.0781C38.3939 15.0401 39.2299 14.1977 40.2599 14.1977C41.2899 14.1977 42.1258 15.0401 42.1258 16.0781V25.5039C42.1258 26.5419 41.2899 27.3843 40.2599 27.3843Z" fill="white"/>
<path d="M61.4274 35.6518C60.9497 35.6518 60.472 35.4688 60.1075 35.1014C59.3785 34.3668 59.3785 33.1772 60.1075 32.4426L66.9991 25.4989C67.7281 24.7643 68.9086 24.7643 69.6376 25.4989C70.3666 26.2335 70.3666 27.4232 69.6376 28.1578L62.746 35.1014C62.3815 35.4675 61.9051 35.6518 61.4274 35.6518Z" fill="white"/>
<path d="M12.5305 85.2566C12.0678 85.2566 11.6038 85.0836 11.2418 84.7363C10.4966 84.0193 10.4693 82.8296 11.1808 82.0775L18.0724 74.8016C18.7852 74.0519 19.9645 74.0231 20.7109 74.7402C21.456 75.4572 21.4834 76.6469 20.7719 77.399L13.8803 84.6749C13.5133 85.0623 13.0232 85.2566 12.5305 85.2566Z" fill="white"/>
<path d="M79.1478 56.9817H70.1228C69.0928 56.9817 68.2568 56.1393 68.2568 55.1013C68.2568 54.0634 69.0928 53.2209 70.1228 53.2209H79.1478C80.1778 53.2209 81.0138 54.0634 81.0138 55.1013C81.0138 56.1393 80.1778 56.9817 79.1478 56.9817Z" fill="white"/>
<path d="M10.7268 56.9817H1.86596C0.83595 56.9817 0 56.1393 0 55.1013C0 54.0634 0.83595 53.2209 1.86596 53.2209H10.7268C11.7568 53.2209 12.5927 54.0634 12.5927 55.1013C12.5927 56.1393 11.7568 56.9817 10.7268 56.9817Z" fill="white"/>
<path d="M19.2579 35.8185C18.7802 35.8185 18.3025 35.6355 17.9381 35.2682L11.3749 28.6542C10.6459 27.9196 10.6459 26.7299 11.3749 25.9953C12.1038 25.2607 13.2843 25.2607 14.0133 25.9953L20.5765 32.6093C21.3055 33.3439 21.3055 34.5335 20.5765 35.2682C20.2133 35.6342 19.7356 35.8185 19.2579 35.8185Z" fill="white"/>
<path d="M68.1548 84.7614C67.6771 84.7614 67.1994 84.5784 66.8349 84.2111L60.2717 77.5971C59.5427 76.8625 59.5427 75.6728 60.2717 74.9382C61.0007 74.2036 62.1812 74.2036 62.9102 74.9382L69.4734 81.5522C70.2023 82.2868 70.2023 83.4765 69.4734 84.2111C69.1101 84.5771 68.6324 84.7614 68.1548 84.7614Z" fill="white"/>
<path d="M32.5685 64.5171C32.0908 64.5171 31.6131 64.3341 31.2486 63.9668C26.2752 58.9536 26.2752 50.7965 31.2486 45.7833C36.2257 40.7715 44.319 40.7727 49.2912 45.7833C50.0202 46.518 50.0202 47.7076 49.2912 48.4422C48.5622 49.1768 47.3817 49.1768 46.6527 48.4422C43.1348 44.8971 37.4075 44.8971 33.8871 48.4422C30.3691 51.9887 30.3691 57.7615 33.8871 61.3079C34.616 62.0425 34.616 63.2334 33.8871 63.9668C33.5226 64.3341 33.0449 64.5171 32.5685 64.5171Z" fill="white"/>
<path d="M110.148 0H106.305V111H110.148V0Z" fill="white"/>
<path d="M137.646 30.9913C141.625 30.9913 144.551 31.6548 146.426 32.9816C148.301 34.3084 149.238 36.4429 149.238 39.3851C149.238 41.5484 148.601 43.3296 147.328 44.7285C146.054 46.1275 144.158 47.0577 141.639 47.5192L150.269 61.6242H145.846L137.603 47.8654H132.966V61.6242H129.36V30.9913H137.646ZM137.26 44.4906C140.093 44.4906 142.154 44.0939 143.442 43.3007C144.73 42.5075 145.374 41.2167 145.374 39.4283C145.374 37.6977 144.795 36.4213 143.635 35.5992C142.476 34.7772 140.68 34.3661 138.247 34.3661H132.966V44.4906H137.26ZM164.137 40.8561C167.113 40.8561 169.439 41.8008 171.113 43.6901C172.788 45.5794 173.639 48.2548 173.668 51.7161V52.5382H157.439C157.611 54.4131 158.312 55.9562 159.543 57.1677C160.773 58.3792 162.276 58.9993 164.051 59.0282C166.77 59.0282 168.888 58.0042 170.405 55.9562L172.938 57.9465C171.879 59.331 170.634 60.3767 169.203 61.0833C167.772 61.79 166.054 62.1434 164.051 62.1434C160.988 62.1434 158.526 61.141 156.666 59.1363C154.805 57.1317 153.861 54.5861 153.832 51.4998C153.832 48.4422 154.784 45.9184 156.687 43.9281C158.591 41.9378 161.074 40.9138 164.137 40.8561ZM170.062 49.6826C169.976 47.923 169.41 46.5313 168.366 45.5073C167.321 44.4833 165.854 43.9714 163.965 43.9714C162.247 43.9714 160.802 44.4617 159.628 45.4424C158.455 46.4231 157.725 47.8365 157.439 49.6826H170.062ZM187.665 28.3953C188.781 28.3953 189.654 28.5684 190.284 28.9145L189.811 31.9432C189.01 31.6548 188.252 31.5105 187.536 31.5105C186.133 31.5105 185.182 31.9216 184.681 32.7436C184.18 33.5657 183.929 34.9286 183.929 36.8323V41.3753H188.824V44.231H183.929V61.6242H180.581V44.231H176.201V41.3753H180.581V36.7891C180.581 31.1932 182.942 28.3953 187.665 28.3953ZM200.116 40.8561C203.035 40.8561 205.161 41.5484 206.492 42.9329C207.823 44.3175 208.502 46.4087 208.531 49.2066V58.2926C208.531 59.158 208.631 60.2685 208.831 61.6242H205.611C205.468 61.3646 205.397 60.355 205.397 58.5955H205.311C203.794 60.9031 201.59 62.0857 198.699 62.1434C196.495 62.1434 194.699 61.5881 193.311 60.4776C191.922 59.3671 191.228 57.9177 191.228 56.1293C191.228 53.6775 192.23 51.882 194.234 50.7426C196.237 49.6032 199.372 49.0336 203.636 49.0336H205.182V48.4711C205.182 45.529 203.522 44.029 200.202 43.9714C197.797 43.9714 195.808 44.7069 194.234 46.178L192.13 43.9714C194.191 41.9522 196.853 40.9138 200.116 40.8561ZM194.835 55.7832C194.835 58.0619 196.309 59.2301 199.257 59.2878C201.003 59.2878 202.427 58.7253 203.529 57.6004C204.631 56.4754 205.182 54.8313 205.182 52.668V51.8892H201.49C199.515 51.8892 197.919 52.2065 196.702 52.841C195.486 53.4756 194.863 54.4563 194.835 55.7832ZM219.737 35.6209V41.3753H225.662V44.231H219.737V55.0476C219.737 56.6629 219.994 57.7302 220.51 58.2494C221.025 58.7686 221.769 59.0282 222.742 59.0282C223.859 59.0282 224.846 58.7974 225.705 58.3359L225.834 61.4078C224.689 61.8982 223.386 62.1434 221.927 62.1434C219.866 62.1434 218.427 61.6314 217.612 60.6074C216.796 59.5834 216.388 57.9032 216.388 55.5668V44.231H212.009V41.3753H216.388V35.6209H219.737ZM255.587 30.9913L268.511 61.6242H264.303L261.212 54.0958H246.013L242.879 61.6242H238.8L252.195 30.9913H255.587ZM253.741 35.6641L247.43 50.721H259.838L253.827 35.6641H253.741ZM275.122 28.9145V44.3175H275.208C277.155 42.0388 279.559 40.885 282.421 40.8561C285.598 40.8561 288.146 41.8585 290.064 43.8632C291.981 45.8679 292.955 48.4134 292.983 51.4998C292.983 54.4996 292.024 57.0091 290.107 59.0282C288.189 61.0473 285.799 62.0857 282.937 62.1434C281.219 62.1434 279.666 61.7684 278.278 61.0184C276.89 60.2685 275.867 59.2734 275.208 58.033H275.122V61.6242H271.774V28.9145H275.122ZM275.122 51.4998C275.122 53.7208 275.802 55.5308 277.162 56.9297C278.521 58.3287 280.217 59.0282 282.25 59.0282C284.339 59.0282 286.042 58.3287 287.359 56.9297C288.675 55.5308 289.348 53.7208 289.377 51.4998C289.377 49.3076 288.711 47.5048 287.38 46.0914C286.049 44.678 284.325 43.9714 282.207 43.9714C280.146 43.9714 278.457 44.6708 277.14 46.0698C275.824 47.4687 275.151 49.2787 275.122 51.4998ZM318.229 28.9145V61.6242H314.88V58.033H314.794C314.107 59.331 313.062 60.3406 311.66 61.0617C310.257 61.7828 308.726 62.1434 307.066 62.1434C304.232 62.1434 301.864 61.1266 299.96 59.0931C298.057 57.0595 297.076 54.5284 297.019 51.4998C297.019 48.4134 297.999 45.8751 299.96 43.8848C301.921 41.8945 304.461 40.885 307.581 40.8561C310.472 40.8561 312.876 42.0099 314.794 44.3175H314.88V28.9145H318.229ZM300.626 51.4998C300.626 53.7208 301.291 55.5236 302.622 56.9081C303.953 58.2926 305.663 58.9993 307.753 59.0282C309.842 59.0282 311.538 58.3359 312.84 56.9514C314.143 55.5668 314.823 53.7496 314.88 51.4998C314.88 49.3076 314.214 47.5048 312.883 46.0914C311.552 44.678 309.828 43.9714 307.71 43.9714C305.649 43.9714 303.967 44.6708 302.665 46.0698C301.363 47.4687 300.683 49.2787 300.626 51.4998ZM327.76 41.3753V53.6631C327.76 55.2207 328.125 56.4971 328.855 57.4922C329.585 58.4873 330.751 58.9993 332.354 59.0282C334.415 59.0282 335.968 58.3359 337.013 56.9514C338.057 55.5668 338.58 53.7208 338.58 51.4132V41.3753H341.929V57.1244C341.957 57.9321 342.014 59.432 342.1 61.6242H338.923C338.895 60.2396 338.866 59.1291 338.837 58.2926H338.751C338.236 59.4176 337.37 60.3406 336.154 61.0617C334.937 61.7828 333.556 62.1434 332.011 62.1434C329.549 62.1145 327.667 61.3718 326.365 59.9151C325.062 58.4585 324.411 56.5043 324.411 54.0525V41.3753H327.76ZM351.632 28.9145V50.2883L360.777 41.3753H365.543L355.839 50.5912L366.53 61.6242H361.593L351.632 50.9806V61.6242H348.283V28.9145H351.632ZM377.478 40.8561C380.398 40.8561 382.523 41.5484 383.854 42.9329C385.185 44.3175 385.865 46.4087 385.894 49.2066V58.2926C385.894 59.158 385.994 60.2685 386.194 61.6242H382.974C382.831 61.3646 382.759 60.355 382.759 58.5955H382.673C381.156 60.9031 378.953 62.0857 376.062 62.1434C373.858 62.1434 372.061 61.5881 370.673 60.4776C369.285 59.3671 368.591 57.9177 368.591 56.1293C368.591 53.6775 369.593 51.882 371.596 50.7426C373.6 49.6032 376.734 49.0336 380.999 49.0336H382.545V48.4711C382.545 45.529 380.885 44.029 377.564 43.9714C375.16 43.9714 373.171 44.7069 371.596 46.178L369.493 43.9714C371.553 41.9522 374.215 40.9138 377.478 40.8561ZM372.197 55.7832C372.197 58.0619 373.672 59.2301 376.62 59.2878C378.366 59.2878 379.79 58.7253 380.892 57.6004C381.994 56.4754 382.545 54.8313 382.545 52.668V51.8892H378.852C376.877 51.8892 375.282 52.2065 374.065 52.841C372.849 53.4756 372.226 54.4563 372.197 55.7832ZM401.908 40.8561C402.423 40.8561 402.881 40.9283 403.282 41.0725L403.067 44.4906C402.438 44.3175 401.837 44.231 401.264 44.231C399.318 44.231 397.851 44.8727 396.863 46.1563C395.876 47.4399 395.382 49.2499 395.382 51.5863V61.6242H392.033V45.8751C392.033 45.4713 391.976 43.9714 391.861 41.3753H395.039C395.096 43.3945 395.125 44.505 395.125 44.7069H395.21C395.754 43.5531 396.634 42.6229 397.851 41.9162C399.067 41.2095 400.42 40.8561 401.908 40.8561ZM409.121 30.9913C409.78 30.9913 410.352 31.2293 410.839 31.7052C411.325 32.1812 411.568 32.7653 411.568 33.4575C411.568 34.1786 411.339 34.77 410.882 35.2315C410.424 35.693 409.837 35.9237 409.121 35.9237C408.406 35.9237 407.819 35.693 407.361 35.2315C406.903 34.77 406.674 34.1786 406.674 33.4575C406.674 32.7653 406.917 32.1812 407.404 31.7052C407.89 31.2293 408.463 30.9913 409.121 30.9913ZM410.796 41.3753V61.6242H407.447V41.3753H410.796ZM427.368 40.8561C430.431 40.8561 432.535 42.1397 433.68 44.7069C434.481 43.38 435.383 42.4065 436.385 41.7864C437.386 41.1662 438.617 40.8561 440.077 40.8561C442.682 40.8561 444.599 41.5412 445.83 42.9113C447.061 44.2814 447.676 46.351 447.676 49.1201V61.6242H444.328V49.3797C444.328 45.8318 442.696 44.029 439.433 43.9714C437.916 43.9714 436.671 44.541 435.698 45.6804C434.725 46.8197 434.238 48.1971 434.238 49.8124V61.6242H430.889V49.8989C430.889 47.9086 430.603 46.4231 430.03 45.4424C429.458 44.4617 428.442 43.9714 426.982 43.9714C424.95 43.9714 423.411 44.6564 422.367 46.0265C421.322 47.3966 420.799 49.2932 420.799 51.7161V61.6242H417.451V45.8751C417.422 44.8655 417.365 43.3656 417.279 41.3753H420.456C420.513 43.3656 420.542 44.4761 420.542 44.7069H420.628C421.172 43.5531 422.045 42.6229 423.247 41.9162C424.449 41.2095 425.823 40.8561 427.368 40.8561ZM463.605 40.8561C466.725 40.8561 469.273 41.8296 471.248 43.7767C473.222 45.7237 474.253 48.298 474.339 51.4998C474.339 54.5861 473.337 57.1172 471.333 59.0931C469.33 61.0689 466.754 62.0857 463.605 62.1434C460.457 62.1434 457.895 61.141 455.92 59.1363C453.945 57.1317 452.929 54.5861 452.872 51.4998C452.872 48.3846 453.873 45.839 455.877 43.8632C457.881 41.8873 460.457 40.885 463.605 40.8561ZM456.478 51.4998C456.478 53.7208 457.144 55.5164 458.474 56.8865C459.805 58.2566 461.516 58.9705 463.605 59.0282C465.695 59.0282 467.398 58.3287 468.714 56.9297C470.031 55.5308 470.704 53.7208 470.732 51.4998C470.732 49.3076 470.067 47.5048 468.736 46.0914C467.405 44.678 465.68 43.9714 463.562 43.9714C461.501 43.9714 459.813 44.6708 458.496 46.0698C457.179 47.4687 456.507 49.2787 456.478 51.4998ZM480.693 41.3753L486.962 57.2542H487.047L493.015 41.3753H496.622L488.679 61.6242H484.987L476.786 41.3753H480.693Z" fill="white"/>
<path d="M129.36 84.0279V75.1352H134.937V76.2219H130.475V78.3076H132.929V79.4067H130.475V84.0279H129.36ZM147.603 79.2943L151.012 84.0279H149.735L146.364 79.3568H145.1V84.0279H144.034V75.1352H147.095C147.653 75.1352 148.173 75.3601 148.57 75.7597C148.967 76.1594 149.19 76.684 149.19 77.246C149.19 78.2327 148.508 79.057 147.603 79.2943ZM145.1 76.2094V78.2827H147.095C147.665 78.2827 148.124 77.8205 148.124 77.246C148.124 76.6715 147.665 76.2094 147.095 76.2094H145.1ZM163.443 74.8605C165.983 74.8605 168.066 76.9463 168.066 79.5191C168.066 82.0795 165.983 84.1528 163.443 84.1528C160.902 84.1528 158.832 82.0795 158.832 79.5191C158.832 76.9463 160.902 74.8605 163.443 74.8605ZM163.443 83.0537C165.376 83.0537 166.938 81.4551 166.938 79.5191C166.938 77.5707 165.376 75.9596 163.443 75.9596C161.509 75.9596 159.948 77.5707 159.948 79.5191C159.948 81.4551 161.509 83.0537 163.443 83.0537ZM183.347 84.0279L178.625 76.9962V84.0279H177.51V75.1352H178.724L183.434 82.167V75.1352H184.549V84.0279H183.347ZM196.485 84.0279V76.2343H194.155V75.1352H199.93V76.2343H197.6V84.0279H196.485ZM209.077 84.0279V75.1352H214.654V76.2094H210.192V78.2952H214.084V79.4067H210.192V82.9288H214.543V84.0279H209.077ZM230.122 84.0279L225.4 76.9962V84.0279H224.284V75.1352H225.499L230.208 82.167V75.1352H231.324V84.0279H230.122ZM241.276 84.0279V75.1352H244.127C246.63 75.1352 248.663 77.1336 248.663 79.5816C248.663 82.0296 246.63 84.0279 244.127 84.0279H241.276ZM244.127 82.9413C246.023 82.9413 247.56 81.4176 247.56 79.5816C247.56 77.7456 246.023 76.2219 244.127 76.2219H242.379V82.9413H244.127ZM268.803 84.0279V75.1352H271.653C274.157 75.1352 276.19 77.1336 276.19 79.5816C276.19 82.0296 274.157 84.0279 271.653 84.0279H268.803ZM271.653 82.9413C273.55 82.9413 275.086 81.4176 275.086 79.5816C275.086 77.7456 273.55 76.2219 271.653 76.2219H269.906V82.9413H271.653ZM285.534 84.0279V75.1352H291.112V76.2094H286.65V78.2952H290.542V79.4067H286.65V82.9288H291V84.0279H285.534ZM300.048 75.1352H301.25L304.026 82.4168L306.815 75.1352H308.005L304.609 84.0279H303.456L300.048 75.1352ZM317.052 84.0279V75.1352H322.629V76.2094H318.167V78.2952H322.059V79.4067H318.167V82.9288H322.518V84.0279H317.052ZM332.073 84.0279V75.1352H333.189V82.9413H338.022V84.0279H332.073ZM350.763 74.8605C353.304 74.8605 355.386 76.9463 355.386 79.5191C355.386 82.0795 353.304 84.1528 350.763 84.1528C348.223 84.1528 346.153 82.0795 346.153 79.5191C346.153 76.9463 348.223 74.8605 350.763 74.8605ZM350.763 83.0537C352.697 83.0537 354.258 81.4551 354.258 79.5191C354.258 77.5707 352.697 75.9596 350.763 75.9596C348.83 75.9596 347.268 77.5707 347.268 79.5191C347.268 81.4551 348.83 83.0537 350.763 83.0537ZM364.768 84.0279V75.1352H367.842C368.4 75.1352 368.933 75.3601 369.329 75.7597C369.726 76.1594 369.949 76.6965 369.949 77.2585C369.949 78.4325 368.995 79.3693 367.842 79.3693H365.871V84.0279H364.768ZM367.842 78.2827C368.387 78.2827 368.834 77.8205 368.834 77.2585C368.834 76.6965 368.387 76.2219 367.842 76.2219H365.871V78.2827H367.842ZM379.517 84.0279V75.1352H385.094V76.2094H380.632V78.2952H384.524V79.4067H380.632V82.9288H384.983V84.0279H379.517ZM398.157 79.2943L401.566 84.0279H400.289L396.918 79.3568H395.654V84.0279H394.588V75.1352H397.649C398.207 75.1352 398.727 75.3601 399.124 75.7597C399.521 76.1594 399.744 76.684 399.744 77.246C399.744 78.2327 399.062 79.057 398.157 79.2943ZM395.654 76.2094V78.2827H397.649C398.219 78.2827 398.678 77.8205 398.678 77.246C398.678 76.6715 398.219 76.2094 397.649 76.2094H395.654Z" fill="white"/>
</g>
<defs>
<clipPath id="clip0_203_2">
<rect width="520" height="111" fill="white"/>
</clipPath>
</defs>
</svg>
